<mxfile host="app.diagrams.net" modified="2024-02-08T06:15:50.460Z" agent="Mozilla/5.0 (Windows NT 10.0; Win64; x64) AppleWebKit/537.36 (KHTML, like Gecko) Chrome/120.0.0.0 Safari/537.36" etag="LEE3Sq_HmgCROAQ3BiAR" version="23.1.2" type="github">
  <diagram name="Page-1" id="haWW-HlAPf8C0q2IV4gv">
    <mxGraphModel dx="2284" dy="772" grid="1" gridSize="10" guides="1" tooltips="1" connect="1" arrows="1" fold="1" page="1" pageScale="1" pageWidth="850" pageHeight="1100" math="0" shadow="0">
      <root>
        <mxCell id="0" />
        <mxCell id="1" parent="0" />
        <mxCell id="kAQYb38Pm6OL3v1g0Ne8-1" value="LIS" style="rounded=0;whiteSpace=wrap;html=1;" vertex="1" parent="1">
          <mxGeometry x="360" y="520" width="160" height="80" as="geometry" />
        </mxCell>
        <mxCell id="kAQYb38Pm6OL3v1g0Ne8-2" value="MEMBER" style="rounded=0;whiteSpace=wrap;html=1;" vertex="1" parent="1">
          <mxGeometry x="-40" y="520" width="160" height="80" as="geometry" />
        </mxCell>
        <mxCell id="kAQYb38Pm6OL3v1g0Ne8-3" value="DATABASE" style="rounded=0;whiteSpace=wrap;html=1;" vertex="1" parent="1">
          <mxGeometry x="760" y="520" width="160" height="80" as="geometry" />
        </mxCell>
        <mxCell id="kAQYb38Pm6OL3v1g0Ne8-4" value="LIBRARIAN" style="rounded=0;whiteSpace=wrap;html=1;" vertex="1" parent="1">
          <mxGeometry x="360" y="800" width="160" height="80" as="geometry" />
        </mxCell>
        <mxCell id="kAQYb38Pm6OL3v1g0Ne8-5" value="" style="endArrow=classic;html=1;rounded=0;" edge="1" parent="1">
          <mxGeometry width="50" height="50" relative="1" as="geometry">
            <mxPoint x="390" y="520" as="sourcePoint" />
            <mxPoint x="900" y="520" as="targetPoint" />
            <Array as="points">
              <mxPoint x="390" y="280" />
              <mxPoint x="900" y="280" />
            </Array>
          </mxGeometry>
        </mxCell>
        <mxCell id="kAQYb38Pm6OL3v1g0Ne8-6" value="" style="endArrow=classic;html=1;rounded=0;exitX=0.806;exitY=-0.025;exitDx=0;exitDy=0;exitPerimeter=0;entryX=0.169;entryY=-0.012;entryDx=0;entryDy=0;entryPerimeter=0;" edge="1" parent="1" source="kAQYb38Pm6OL3v1g0Ne8-1" target="kAQYb38Pm6OL3v1g0Ne8-3">
          <mxGeometry width="50" height="50" relative="1" as="geometry">
            <mxPoint x="400" y="530" as="sourcePoint" />
            <mxPoint x="910" y="530" as="targetPoint" />
            <Array as="points">
              <mxPoint x="490" y="400" />
              <mxPoint x="787" y="400" />
            </Array>
          </mxGeometry>
        </mxCell>
        <mxCell id="kAQYb38Pm6OL3v1g0Ne8-7" value="" style="endArrow=classic;html=1;rounded=0;exitX=0.5;exitY=0;exitDx=0;exitDy=0;entryX=0.5;entryY=0;entryDx=0;entryDy=0;" edge="1" parent="1" source="kAQYb38Pm6OL3v1g0Ne8-3" target="kAQYb38Pm6OL3v1g0Ne8-1">
          <mxGeometry width="50" height="50" relative="1" as="geometry">
            <mxPoint x="499" y="528" as="sourcePoint" />
            <mxPoint x="797" y="529" as="targetPoint" />
            <Array as="points">
              <mxPoint x="840" y="340" />
              <mxPoint x="640" y="340" />
              <mxPoint x="440" y="340" />
            </Array>
          </mxGeometry>
        </mxCell>
        <mxCell id="kAQYb38Pm6OL3v1g0Ne8-8" value="" style="endArrow=classic;html=1;rounded=0;entryX=-0.019;entryY=0.163;entryDx=0;entryDy=0;entryPerimeter=0;exitX=0.994;exitY=0.175;exitDx=0;exitDy=0;exitPerimeter=0;" edge="1" parent="1">
          <mxGeometry width="50" height="50" relative="1" as="geometry">
            <mxPoint x="519.04" y="535" as="sourcePoint" />
            <mxPoint x="756.96" y="534.04" as="targetPoint" />
          </mxGeometry>
        </mxCell>
        <mxCell id="kAQYb38Pm6OL3v1g0Ne8-9" value="" style="endArrow=classic;html=1;rounded=0;entryX=-0.031;entryY=0.15;entryDx=0;entryDy=0;entryPerimeter=0;exitX=0.994;exitY=0.175;exitDx=0;exitDy=0;exitPerimeter=0;" edge="1" parent="1">
          <mxGeometry width="50" height="50" relative="1" as="geometry">
            <mxPoint x="521" y="560" as="sourcePoint" />
            <mxPoint x="757" y="558" as="targetPoint" />
          </mxGeometry>
        </mxCell>
        <mxCell id="kAQYb38Pm6OL3v1g0Ne8-10" value="" style="endArrow=classic;html=1;rounded=0;entryX=1;entryY=0.75;entryDx=0;entryDy=0;exitX=0;exitY=0.75;exitDx=0;exitDy=0;" edge="1" parent="1">
          <mxGeometry width="50" height="50" relative="1" as="geometry">
            <mxPoint x="760" y="580" as="sourcePoint" />
            <mxPoint x="520" y="580" as="targetPoint" />
          </mxGeometry>
        </mxCell>
        <mxCell id="kAQYb38Pm6OL3v1g0Ne8-11" value="" style="endArrow=classic;html=1;rounded=0;entryX=1;entryY=0.75;entryDx=0;entryDy=0;exitX=0;exitY=0.75;exitDx=0;exitDy=0;" edge="1" parent="1">
          <mxGeometry width="50" height="50" relative="1" as="geometry">
            <mxPoint x="360" y="580" as="sourcePoint" />
            <mxPoint x="120" y="580" as="targetPoint" />
          </mxGeometry>
        </mxCell>
        <mxCell id="kAQYb38Pm6OL3v1g0Ne8-12" value="" style="endArrow=classic;html=1;rounded=0;entryX=-0.019;entryY=0.163;entryDx=0;entryDy=0;entryPerimeter=0;exitX=0.994;exitY=0.175;exitDx=0;exitDy=0;exitPerimeter=0;" edge="1" parent="1">
          <mxGeometry width="50" height="50" relative="1" as="geometry">
            <mxPoint x="122" y="538" as="sourcePoint" />
            <mxPoint x="360" y="537" as="targetPoint" />
          </mxGeometry>
        </mxCell>
        <mxCell id="kAQYb38Pm6OL3v1g0Ne8-13" value="" style="endArrow=classic;html=1;rounded=0;entryX=-0.019;entryY=0.163;entryDx=0;entryDy=0;entryPerimeter=0;exitX=0.994;exitY=0.175;exitDx=0;exitDy=0;exitPerimeter=0;" edge="1" parent="1">
          <mxGeometry width="50" height="50" relative="1" as="geometry">
            <mxPoint x="123" y="560" as="sourcePoint" />
            <mxPoint x="361" y="559" as="targetPoint" />
          </mxGeometry>
        </mxCell>
        <mxCell id="kAQYb38Pm6OL3v1g0Ne8-14" value="" style="endArrow=classic;html=1;rounded=0;entryX=0.325;entryY=1.063;entryDx=0;entryDy=0;entryPerimeter=0;" edge="1" parent="1" target="kAQYb38Pm6OL3v1g0Ne8-3">
          <mxGeometry width="50" height="50" relative="1" as="geometry">
            <mxPoint x="510" y="601" as="sourcePoint" />
            <mxPoint x="500" y="510" as="targetPoint" />
            <Array as="points">
              <mxPoint x="510" y="640" />
              <mxPoint x="812" y="640" />
            </Array>
          </mxGeometry>
        </mxCell>
        <mxCell id="kAQYb38Pm6OL3v1g0Ne8-15" value="" style="endArrow=classic;html=1;rounded=0;" edge="1" parent="1">
          <mxGeometry width="50" height="50" relative="1" as="geometry">
            <mxPoint x="490" y="600" as="sourcePoint" />
            <mxPoint x="850" y="600" as="targetPoint" />
            <Array as="points">
              <mxPoint x="490" y="670" />
              <mxPoint x="850" y="670" />
              <mxPoint x="850" y="640" />
            </Array>
          </mxGeometry>
        </mxCell>
        <mxCell id="kAQYb38Pm6OL3v1g0Ne8-16" value="" style="endArrow=classic;html=1;rounded=0;exitX=-0.031;exitY=0.388;exitDx=0;exitDy=0;exitPerimeter=0;" edge="1" parent="1" source="kAQYb38Pm6OL3v1g0Ne8-4">
          <mxGeometry width="50" height="50" relative="1" as="geometry">
            <mxPoint x="350" y="830" as="sourcePoint" />
            <mxPoint x="11" y="600" as="targetPoint" />
            <Array as="points">
              <mxPoint x="11" y="830" />
            </Array>
          </mxGeometry>
        </mxCell>
        <mxCell id="kAQYb38Pm6OL3v1g0Ne8-17" value="" style="endArrow=classic;html=1;rounded=0;entryX=0;entryY=0.75;entryDx=0;entryDy=0;exitX=0.069;exitY=1.063;exitDx=0;exitDy=0;exitPerimeter=0;" edge="1" parent="1" source="kAQYb38Pm6OL3v1g0Ne8-2" target="kAQYb38Pm6OL3v1g0Ne8-4">
          <mxGeometry width="50" height="50" relative="1" as="geometry">
            <mxPoint x="450" y="560" as="sourcePoint" />
            <mxPoint x="500" y="510" as="targetPoint" />
            <Array as="points">
              <mxPoint x="-29" y="860" />
            </Array>
          </mxGeometry>
        </mxCell>
        <mxCell id="kAQYb38Pm6OL3v1g0Ne8-18" value="" style="endArrow=classic;html=1;rounded=0;entryX=0.069;entryY=1.075;entryDx=0;entryDy=0;entryPerimeter=0;exitX=0.931;exitY=1;exitDx=0;exitDy=0;exitPerimeter=0;" edge="1" parent="1" source="kAQYb38Pm6OL3v1g0Ne8-2">
          <mxGeometry width="50" height="50" relative="1" as="geometry">
            <mxPoint x="111.03999999999996" y="600.04" as="sourcePoint" />
            <mxPoint x="371.03999999999996" y="601" as="targetPoint" />
            <Array as="points">
              <mxPoint x="110" y="660" />
              <mxPoint x="240" y="660" />
              <mxPoint x="371" y="660" />
            </Array>
          </mxGeometry>
        </mxCell>
        <mxCell id="kAQYb38Pm6OL3v1g0Ne8-19" value="" style="endArrow=classic;html=1;rounded=0;entryX=0.813;entryY=1.025;entryDx=0;entryDy=0;entryPerimeter=0;" edge="1" parent="1" target="kAQYb38Pm6OL3v1g0Ne8-2">
          <mxGeometry width="50" height="50" relative="1" as="geometry">
            <mxPoint x="390" y="602" as="sourcePoint" />
            <mxPoint x="500" y="510" as="targetPoint" />
            <Array as="points">
              <mxPoint x="390" y="680" />
              <mxPoint x="90" y="680" />
            </Array>
          </mxGeometry>
        </mxCell>
        <mxCell id="kAQYb38Pm6OL3v1g0Ne8-20" value="" style="endArrow=classic;html=1;rounded=0;exitX=0.313;exitY=-0.012;exitDx=0;exitDy=0;exitPerimeter=0;entryX=0.306;entryY=1.025;entryDx=0;entryDy=0;entryPerimeter=0;" edge="1" parent="1" source="kAQYb38Pm6OL3v1g0Ne8-4" target="kAQYb38Pm6OL3v1g0Ne8-1">
          <mxGeometry width="50" height="50" relative="1" as="geometry">
            <mxPoint x="450" y="560" as="sourcePoint" />
            <mxPoint x="500" y="510" as="targetPoint" />
          </mxGeometry>
        </mxCell>
        <mxCell id="kAQYb38Pm6OL3v1g0Ne8-21" value="" style="endArrow=classic;html=1;rounded=0;exitX=0.313;exitY=-0.012;exitDx=0;exitDy=0;exitPerimeter=0;entryX=0.306;entryY=1.025;entryDx=0;entryDy=0;entryPerimeter=0;" edge="1" parent="1">
          <mxGeometry width="50" height="50" relative="1" as="geometry">
            <mxPoint x="431" y="799" as="sourcePoint" />
            <mxPoint x="430" y="602" as="targetPoint" />
          </mxGeometry>
        </mxCell>
        <mxCell id="kAQYb38Pm6OL3v1g0Ne8-22" value="" style="endArrow=classic;html=1;rounded=0;entryX=0.563;entryY=-0.037;entryDx=0;entryDy=0;entryPerimeter=0;" edge="1" parent="1" target="kAQYb38Pm6OL3v1g0Ne8-4">
          <mxGeometry width="50" height="50" relative="1" as="geometry">
            <mxPoint x="450" y="600" as="sourcePoint" />
            <mxPoint x="500" y="510" as="targetPoint" />
          </mxGeometry>
        </mxCell>
        <mxCell id="kAQYb38Pm6OL3v1g0Ne8-23" value="" style="endArrow=classic;html=1;rounded=0;exitX=0.313;exitY=-0.012;exitDx=0;exitDy=0;exitPerimeter=0;entryX=0.306;entryY=1.025;entryDx=0;entryDy=0;entryPerimeter=0;" edge="1" parent="1">
          <mxGeometry width="50" height="50" relative="1" as="geometry">
            <mxPoint x="470" y="798" as="sourcePoint" />
            <mxPoint x="469" y="601" as="targetPoint" />
          </mxGeometry>
        </mxCell>
        <mxCell id="kAQYb38Pm6OL3v1g0Ne8-24" value="1. enter login details" style="text;html=1;strokeColor=none;fillColor=none;align=center;verticalAlign=middle;whiteSpace=wrap;rounded=0;" vertex="1" parent="1">
          <mxGeometry x="187" y="513" width="110" height="30" as="geometry" />
        </mxCell>
        <mxCell id="kAQYb38Pm6OL3v1g0Ne8-25" value="3. search books" style="text;html=1;strokeColor=none;fillColor=none;align=center;verticalAlign=middle;whiteSpace=wrap;rounded=0;" vertex="1" parent="1">
          <mxGeometry x="189" y="537" width="110" height="30" as="geometry" />
        </mxCell>
        <mxCell id="kAQYb38Pm6OL3v1g0Ne8-26" value="6. display book details" style="text;html=1;strokeColor=none;fillColor=none;align=center;verticalAlign=middle;whiteSpace=wrap;rounded=0;" vertex="1" parent="1">
          <mxGeometry x="180" y="558" width="139" height="30" as="geometry" />
        </mxCell>
        <mxCell id="kAQYb38Pm6OL3v1g0Ne8-27" value="19. delete book" style="text;html=1;strokeColor=none;fillColor=none;align=center;verticalAlign=middle;whiteSpace=wrap;rounded=0;" vertex="1" parent="1">
          <mxGeometry x="600" y="256" width="110" height="30" as="geometry" />
        </mxCell>
        <mxCell id="kAQYb38Pm6OL3v1g0Ne8-29" value="16. book issue history" style="text;html=1;strokeColor=none;fillColor=none;align=center;verticalAlign=middle;whiteSpace=wrap;rounded=0;" vertex="1" parent="1">
          <mxGeometry x="600" y="315" width="130" height="30" as="geometry" />
        </mxCell>
        <mxCell id="kAQYb38Pm6OL3v1g0Ne8-30" value="15. fetch book details" style="text;html=1;strokeColor=none;fillColor=none;align=center;verticalAlign=middle;whiteSpace=wrap;rounded=0;" vertex="1" parent="1">
          <mxGeometry x="600" y="375" width="130" height="30" as="geometry" />
        </mxCell>
        <mxCell id="kAQYb38Pm6OL3v1g0Ne8-31" value="2. member details validation" style="text;html=1;strokeColor=none;fillColor=none;align=center;verticalAlign=middle;whiteSpace=wrap;rounded=0;" vertex="1" parent="1">
          <mxGeometry x="561" y="510" width="160" height="30" as="geometry" />
        </mxCell>
        <mxCell id="kAQYb38Pm6OL3v1g0Ne8-32" value="4. fetch book details" style="text;html=1;strokeColor=none;fillColor=none;align=center;verticalAlign=middle;whiteSpace=wrap;rounded=0;" vertex="1" parent="1">
          <mxGeometry x="562" y="536" width="160" height="30" as="geometry" />
        </mxCell>
        <mxCell id="kAQYb38Pm6OL3v1g0Ne8-33" value="5. give no. of copies &amp;amp; rack no." style="text;html=1;strokeColor=none;fillColor=none;align=center;verticalAlign=middle;whiteSpace=wrap;rounded=0;" vertex="1" parent="1">
          <mxGeometry x="562" y="557" width="178" height="30" as="geometry" />
        </mxCell>
        <mxCell id="kAQYb38Pm6OL3v1g0Ne8-34" value="7. issue / reserve book" style="text;html=1;strokeColor=none;fillColor=none;align=center;verticalAlign=middle;whiteSpace=wrap;rounded=0;" vertex="1" parent="1">
          <mxGeometry x="174.5" y="636" width="139" height="30" as="geometry" />
        </mxCell>
        <mxCell id="kAQYb38Pm6OL3v1g0Ne8-35" value="8. update member account &amp;amp; set book as reserved" style="text;html=1;strokeColor=none;fillColor=none;align=center;verticalAlign=middle;whiteSpace=wrap;rounded=0;" vertex="1" parent="1">
          <mxGeometry x="526" y="615" width="278" height="30" as="geometry" />
        </mxCell>
        <mxCell id="kAQYb38Pm6OL3v1g0Ne8-36" value="9. give book" style="text;html=1;strokeColor=none;fillColor=none;align=center;verticalAlign=middle;whiteSpace=wrap;rounded=0;" vertex="1" parent="1">
          <mxGeometry x="119" y="805" width="139" height="30" as="geometry" />
        </mxCell>
        <mxCell id="kAQYb38Pm6OL3v1g0Ne8-38" value="10. return book" style="text;html=1;strokeColor=none;fillColor=none;align=center;verticalAlign=middle;whiteSpace=wrap;rounded=0;" vertex="1" parent="1">
          <mxGeometry x="119" y="837" width="139" height="30" as="geometry" />
        </mxCell>
        <mxCell id="kAQYb38Pm6OL3v1g0Ne8-39" value="11. update book as returned" style="text;html=1;strokeColor=none;fillColor=none;align=center;verticalAlign=middle;whiteSpace=wrap;rounded=0;rotation=-90;" vertex="1" parent="1">
          <mxGeometry x="305" y="690" width="189" height="30" as="geometry" />
        </mxCell>
        <mxCell id="kAQYb38Pm6OL3v1g0Ne8-41" value="14. details of procured books" style="text;html=1;strokeColor=none;fillColor=none;align=center;verticalAlign=middle;whiteSpace=wrap;rounded=0;rotation=-90;" vertex="1" parent="1">
          <mxGeometry x="328" y="691" width="189" height="30" as="geometry" />
        </mxCell>
        <mxCell id="kAQYb38Pm6OL3v1g0Ne8-42" value="12. delete book from member account &amp;amp; check for overdue" style="text;html=1;strokeColor=none;fillColor=none;align=center;verticalAlign=middle;whiteSpace=wrap;rounded=0;" vertex="1" parent="1">
          <mxGeometry x="498" y="645" width="344" height="30" as="geometry" />
        </mxCell>
        <mxCell id="kAQYb38Pm6OL3v1g0Ne8-43" value="13. print bill &amp;amp; late fine if applied" style="text;html=1;strokeColor=none;fillColor=none;align=center;verticalAlign=middle;whiteSpace=wrap;rounded=0;" vertex="1" parent="1">
          <mxGeometry x="155.5" y="656" width="177.5" height="30" as="geometry" />
        </mxCell>
        <mxCell id="kAQYb38Pm6OL3v1g0Ne8-44" value="17. display issue history" style="text;html=1;strokeColor=none;fillColor=none;align=center;verticalAlign=middle;whiteSpace=wrap;rounded=0;rotation=90;" vertex="1" parent="1">
          <mxGeometry x="362" y="684" width="189" height="30" as="geometry" />
        </mxCell>
        <mxCell id="kAQYb38Pm6OL3v1g0Ne8-45" value="18. delete book" style="text;html=1;strokeColor=none;fillColor=none;align=center;verticalAlign=middle;whiteSpace=wrap;rounded=0;rotation=-90;" vertex="1" parent="1">
          <mxGeometry x="384" y="686" width="189" height="30" as="geometry" />
        </mxCell>
      </root>
    </mxGraphModel>
  </diagram>
</mxfile>
